<svg xmlns="http://www.w3.org/2000/svg" width="60" height="60" viewBox="0 0 60 60">
    <g fill="none" fill-rule="evenodd">
        <path fill="#000031" d="M30.11 0C13.538-.06.06 13.32 0 29.895-.058 46.46 13.326 59.94 29.89 60c16.564.058 30.051-13.32 30.11-29.894C60.058 13.539 46.675.059 30.11 0"/>
        <path fill="#FFF" d="M29.941 45.763c-8.705-.034-15.737-7.115-15.704-15.817.025-8.703 7.109-15.734 15.822-15.709 8.705.034 15.737 7.115 15.704 15.818-.034 8.702-7.116 15.732-15.822 15.708"/>
        <path fill="#000031" fill-rule="nonzero" d="M30 33.296l-6.993-6.993a1 1 0 0 0-1.414 0l-.785.786a1 1 0 0 0 0 1.414L30 37.695l9.192-9.192a1 1 0 0 0 0-1.414l-.785-.786a1 1 0 0 0-1.414 0L30 33.296z"/>
    </g>
</svg>
