<svg xmlns="http://www.w3.org/2000/svg" viewBox="0 0 264.93 134.1"><defs><style>.cls-1{fill:#000031;}</style></defs><title>Beer Names</title><g id="Artwork"><polygon class="cls-1" points="35.64 48.64 16.21 48.64 16.21 0.01 0 0.01 0 62.37 35.64 62.37 35.64 48.64"/><path class="cls-1" d="M152.61,24.15h.16l29.7,38.22h16.21V0H182.47V38.13h-.17L152.61,0H136.4V58.21L114.48,0H96.78L74.88,57V48.64H55.61V37.89H73.89V24.16H55.61V13.74H74.88V0H39.4V62.36H90l4.3-10.83h22.32l4.06,10.83h31.93Zm-53.85,15,6.7-19.85h.17l6.61,19.85Z"/><polygon class="cls-1" points="248.72 0.01 248.72 38.13 248.56 38.13 218.87 0.01 202.66 0.01 202.66 62.37 218.87 62.37 218.87 24.16 219.03 24.16 248.72 62.37 264.93 62.37 264.93 0.01 248.72 0.01"/><path class="cls-1" d="M26.94,82.85c-7,0-13.5,5.18-13.5,12.56,0,7.9,5.67,13.46,13.5,13.46s13.49-5.56,13.49-13.46C40.43,88,34,82.85,26.94,82.85Zm0,19.88a7,7,0,0,1-6.89-7.28,6.91,6.91,0,0,1,13.78,0A7,7,0,0,1,26.94,102.73Z"/><polygon class="cls-1" points="59.15 98.58 59.09 98.58 47.47 83.67 41.13 83.67 41.13 108.07 47.47 108.07 47.47 93.11 47.53 93.11 59.15 108.07 65.5 108.07 65.5 83.67 59.15 83.67 59.15 98.58"/><polygon class="cls-1" points="123.06 71.74 109.66 105.07 97.01 71.74 81.05 71.74 70.46 134.1 86.59 134.1 91.8 98.21 91.97 98.21 106.27 134.1 112.72 134.1 127.69 98.21 127.86 98.21 132.41 134.1 148.62 134.1 139.19 71.74 123.06 71.74"/><path class="cls-1" d="M190.73,71.74l-24,62.36h17.2l4.31-10.84h22.32l4.06,10.84h17.28L208.43,71.74Zm2,39.12L199.41,91h.17l6.61,19.85Z"/><polygon class="cls-1" points="149.98 134.09 166.19 134.09 166.19 75.2 149.98 82.01 149.98 134.09"/><polygon class="cls-1" points="154.91 76.86 173.16 66.93 165.21 57 150.45 72.13 154.91 76.86"/></g></svg>