<?xml version="1.0" encoding="utf-8"?>
<!-- Generator: Adobe Illustrator 22.0.0, SVG Export Plug-In . SVG Version: 6.00 Build 0)  -->
<svg version="1.1" id="Layer_1" xmlns="http://www.w3.org/2000/svg" xmlns:xlink="http://www.w3.org/1999/xlink" x="0px" y="0px"
	 viewBox="0 0 240.9 145.6" style="enable-background:new 0 0 240.9 145.6;" xml:space="preserve">
<style type="text/css">
	.st0{fill:#000031;}
</style>
<title>Beer Names</title>
<g id="Artwork">
	<path class="st0" d="M58.5,106l-4.1-1.2c-2.8-0.9-7.2-2.3-7.2-6c0-3.5,4-5.2,6.9-5.2c4,0.1,7.8,1.6,10.8,4.1l6.5-12.6
		c-6-3.2-12.7-5-19.5-5.1c-12.5,0-21.5,8.3-21.5,20.9c0,12.1,6.7,14.7,16.9,17.6c3.5,1,9.8,2.6,9.8,7.1c0,4.4-4.1,6.3-7.9,6.3
		c-5.5,0-10.3-2.9-14.4-6.4l-7,13.1c6.4,4.6,14.1,7,21.9,7.1c6.3,0,12.8-1.7,17.7-5.9s6.5-10.6,6.5-16.8
		C73.9,112.9,67.2,108.5,58.5,106z"/>
	<polygon class="st0" points="78,144 113.5,144 113.5,130.3 94.2,130.3 94.2,119.5 112.5,119.5 112.5,105.8 94.2,105.8 94.2,95.4 
		113.5,95.4 113.5,81.6 78,81.6 	"/>
	<polygon class="st0" points="116.6,81.6 116.6,95.4 130,95.4 130,144 146.2,144 146.2,95.4 172,95.4 172,144 188.2,144 188.2,95.4 
		201.6,95.4 201.6,81.6 	"/>
	<polygon class="st0" points="240.9,95.4 240.9,81.6 205.4,81.6 205.4,144 240.9,144 240.9,130.3 221.7,130.3 221.7,119.5 
		239.9,119.5 239.9,105.8 221.7,105.8 221.7,95.4 	"/>
	<path class="st0" d="M46.1,51.3c0-10.1-6.7-14.5-15.4-17L26.5,33c-2.8-0.9-7.2-2.3-7.2-6c0-3.5,4-5.2,7-5.2
		c3.9,0.1,7.7,1.6,10.7,4.2l6.5-12.6c-6-3.2-12.7-5-19.5-5.1c-12.5,0-21.5,8.3-21.5,20.9c0,12.1,6.7,14.7,16.9,17.6
		c3.5,1,9.8,2.6,9.8,7.1c0,4.4-4.1,6.3-7.9,6.3c-5.6,0-10.4-2.9-14.4-6.5L0,66.8c6.4,4.6,14.1,7,21.9,7.1c6.3,0,12.8-1.7,17.7-5.9
		S46.1,57.5,46.1,51.3z"/>
	<path class="st0" d="M105.7,17l-13.9,9.8c4.5,2.9,7.2,7.9,7.4,13.2c0,10.8-7.9,18.6-17.6,18.6S63.9,50.8,63.9,40
		c0-7.7,6.4-14.8,14.7-16.2l9-15.5c-2-0.3-4-0.5-6-0.5c-17.9,0-34.5,13.2-34.5,32.1c0,20.2,14.5,34.4,34.5,34.4S116,60.1,116,39.9
		C116,31.2,112.3,22.8,105.7,17z"/>
	<polygon class="st0" points="136.2,34.1 136.4,34.1 166.1,72.3 182.3,72.3 182.3,9.9 166.1,9.9 166.1,48 165.9,48 136.2,9.9 
		120,9.9 120,72.3 136.2,72.3 	"/>
	<polygon class="st0" points="92.6,21.4 108.6,8.3 99,0 87.3,17.6 	"/>
</g>
</svg>
