<svg xmlns="http://www.w3.org/2000/svg" viewBox="0 0 240.93 145.65"><defs><style>.cls-1{fill:#000031;}</style></defs><title>Beer Names</title><g id="Artwork"><path class="cls-1" d="M58.49,106l-4.14-1.24c-2.81-.91-7.19-2.32-7.19-6,0-3.47,4-5.21,6.94-5.21a17,17,0,0,1,10.75,4.14l6.46-12.57A42.62,42.62,0,0,0,51.79,80c-12.49,0-21.51,8.27-21.51,20.92,0,12.08,6.7,14.72,16.88,17.62,3.47,1,9.84,2.56,9.84,7.11,0,4.38-4.06,6.28-7.86,6.28-5.54,0-10.34-2.89-14.39-6.45L27.8,138.54a38.45,38.45,0,0,0,21.92,7.11c6.29,0,12.82-1.73,17.7-5.87S73.87,129.2,73.87,123C73.87,112.9,67.17,108.52,58.49,106Z"/><polygon class="cls-1" points="77.99 144 113.47 144 113.47 130.27 94.2 130.27 94.2 119.52 112.48 119.52 112.48 105.79 94.2 105.79 94.2 95.37 113.47 95.37 113.47 81.64 77.99 81.64 77.99 144"/><polygon class="cls-1" points="116.62 81.64 116.62 95.37 130.01 95.37 130.01 144 146.22 144 146.22 95.37 172.03 95.37 172.03 144 188.24 144 188.24 95.37 201.64 95.37 201.64 81.64 116.62 81.64"/><polygon class="cls-1" points="240.93 95.37 240.93 81.64 205.45 81.64 205.45 144 240.93 144 240.93 130.27 221.66 130.27 221.66 119.52 239.94 119.52 239.94 105.79 221.66 105.79 221.66 95.37 240.93 95.37"/><path class="cls-1" d="M46.07,51.26c0-10.09-6.7-14.47-15.39-17L26.55,33c-2.81-.91-7.2-2.31-7.2-5.95,0-3.47,4-5.21,7-5.21A17.06,17.06,0,0,1,37.05,26L43.5,13.38A42.66,42.66,0,0,0,24,8.26c-12.48,0-21.5,8.27-21.5,20.92,0,12.07,6.7,14.72,16.87,17.62,3.48,1,9.84,2.56,9.84,7.11,0,4.38-4.05,6.28-7.85,6.28C15.8,60.19,11,57.3,7,53.74L0,66.81a38.53,38.53,0,0,0,21.92,7.11c6.28,0,12.82-1.74,17.69-5.87S46.07,57.46,46.07,51.26Z"/><path class="cls-1" d="M105.67,17,91.75,26.77A16.38,16.38,0,0,1,99.15,40c0,10.76-7.93,18.6-17.62,18.6S63.91,50.77,63.91,40c0-7.71,6.37-14.81,14.66-16.19l9-15.47a35.24,35.24,0,0,0-6-.51c-17.94,0-34.48,13.24-34.48,32.09,0,20.17,14.48,34.41,34.48,34.41S116,60.1,116,39.93A30.4,30.4,0,0,0,105.67,17Z"/><polygon class="cls-1" points="136.19 34.06 136.36 34.06 166.05 72.27 182.26 72.27 182.26 9.91 166.05 9.91 166.05 48.04 165.88 48.04 136.19 9.91 119.98 9.91 119.98 72.27 136.19 72.27 136.19 34.06"/><rect class="cls-1" x="185.36" y="38.01" width="23.65" height="12.41"/><polygon class="cls-1" points="92.58 21.44 108.64 8.26 98.97 0 87.31 17.63 92.58 21.44"/></g></svg>