<svg xmlns="http://www.w3.org/2000/svg" viewBox="0 0 268.38 148.05"><defs><style>.cls-1{fill:#000031;}</style></defs><title>Beer Names</title><g id="Artwork"><polygon class="cls-1" points="79.59 85.19 67.66 122.45 55.42 85.19 42.52 85.19 29.3 122.45 18.46 85.19 0.71 85.19 23.2 147.55 36.66 147.55 48.9 111.39 49.07 111.39 59.97 147.55 73.51 147.55 97.34 85.19 79.59 85.19"/><path class="cls-1" d="M101.06,85.19l-24,62.36H94.28l4.3-10.84h22.33l4,10.84h17.3L118.77,85.19Zm2,39.1,6.69-19.85h.17l6.61,19.85Z"/><polygon class="cls-1" points="131.72 98.92 145.11 98.92 145.11 147.55 161.33 147.55 161.33 98.92 174.72 98.92 174.72 85.19 131.72 85.19 131.72 98.92"/><polygon class="cls-1" points="177.48 147.55 212.95 147.55 212.95 133.82 193.68 133.82 193.68 123.06 211.96 123.06 211.96 109.33 193.68 109.33 193.68 98.92 212.95 98.92 212.95 85.19 177.48 85.19 177.48 147.55"/><path class="cls-1" d="M247.77,122c8.84-1.57,13.65-9,13.65-17.6,0-13.33-9.35-19.19-21.68-19.19H215.51v62.36h16.22v-24h.17l15.3,24h20.17Zm-14.47-8.84h-1.57V97.58h1.57c5.29,0,11.24,1,11.24,7.78S238.59,113.14,233.3,113.14Z"/><polygon class="cls-1" points="30.35 50.24 53.75 50.24 53.75 75.81 69.97 75.81 69.97 13.45 53.75 13.45 53.75 37.51 30.35 37.51 30.35 13.45 14.14 13.45 14.14 75.81 30.35 75.81 30.35 50.24"/><polygon class="cls-1" points="205.29 62.08 185.87 62.08 185.87 13.45 169.65 13.45 169.65 75.81 205.29 75.81 205.29 62.08"/><polygon class="cls-1" points="216.47 75.81 232.69 75.81 232.69 45.87 255.68 13.45 236.24 13.45 224.59 30.39 212.92 13.45 193.47 13.45 216.47 45.87 216.47 75.81"/><path class="cls-1" d="M107.76,77.87c20,0,34.45-14.22,34.45-34.41,0-12.83-7.65-23.06-18.2-28.26l-5.27,15.66a16.29,16.29,0,0,1,6.63,12.69c0,10.75-8,18.62-17.61,18.62S90.15,54.3,90.15,43.55a16.32,16.32,0,0,1,6.67-12.73L91.55,15.15C81,20.36,73.29,30.61,73.29,43.46,73.29,63.65,87.75,77.87,107.76,77.87Z"/><polygon class="cls-1" points="107.76 14.83 110.11 24.26 118.44 24.26 112.56 8.18 103.02 8.18 97.14 24.26 105.49 24.26 107.76 14.83"/><polygon class="cls-1" points="116.76 11.8 122.35 11.8 121.78 4.95 121.37 0 112.43 0 114.26 4.95 116.76 11.8"/></g></svg>