<svg id="Artwork" xmlns="http://www.w3.org/2000/svg" viewBox="0 0 1006.3 99.1"><defs><style>.cls-1{fill:#000031;}</style></defs><title>overmorrow-logo-horizontal-rgb</title><path class="cls-1" d="M93.5,2.43h24.09L141.4,58,165.16,2.43h24L149,96.67H133.69Z"/><path class="cls-1" d="M282.94,56.39H207a25.21,25.21,0,0,0,8.79,16q7.14,5.94,18.23,5.94A31.51,31.51,0,0,0,256.78,69l19.93,9.35A47.05,47.05,0,0,1,258.86,94q-10.4,5.07-24.68,5.07-22.19,0-36.13-14t-13.94-35q0-21.57,13.9-35.82T232.88,0q22.26,0,36.2,14.25T283,51.89ZM259.29,37.77A23.68,23.68,0,0,0,250.05,25,26.8,26.8,0,0,0,234,20a28.35,28.35,0,0,0-17.35,5.54Q212,29,208,37.77Z"/><path class="cls-1" d="M369,2.43h23.65V13.25a40.49,40.49,0,0,1,13.48-10A39.44,39.44,0,0,1,422.33,0a30.1,30.1,0,0,1,15.95,4.33A31.3,31.3,0,0,1,449.73,17,37.26,37.26,0,0,1,481.45,0a33.15,33.15,0,0,1,17.69,4.68,27,27,0,0,1,11,12.21q3.35,7.55,3.34,24.52V96.67H489.62V48.86q0-16-4-21.7t-11.95-5.68A18.13,18.13,0,0,0,462.81,25a20.46,20.46,0,0,0-7.15,9.57q-2.34,6.1-2.34,19.62V96.67H429.5V51q0-12.65-1.86-18.32a16.63,16.63,0,0,0-5.6-8.45,14.78,14.78,0,0,0-9-2.77A17.81,17.81,0,0,0,402.28,25a21,21,0,0,0-7.2,9.83q-2.4,6.33-2.39,19.93V96.67H369Z"/><path class="cls-1" d="M351.33,28.89a18.38,18.38,0,0,0-14.83-7.41A17.79,17.79,0,0,0,325.78,25a20.9,20.9,0,0,0-7.21,9.83q-2.38,6.33-2.39,19.92V96.67H292.54V2.43h23.64V13.25a40.59,40.59,0,0,1,13.48-10A39.45,39.45,0,0,1,345.83,0a30,30,0,0,1,15.95,4.33Z"/><path class="cls-1" d="M689.73,28.89a18.36,18.36,0,0,0-14.82-7.41A17.81,17.81,0,0,0,664.18,25a21,21,0,0,0-7.2,9.83q-2.4,6.33-2.39,19.92V96.67H630.94V2.43h23.65V13.25a40.49,40.49,0,0,1,13.48-10A39.44,39.44,0,0,1,684.23,0a30,30,0,0,1,15.95,4.33Z"/><path class="cls-1" d="M764.36,28.89a18.36,18.36,0,0,0-14.82-7.41A17.79,17.79,0,0,0,738.81,25a21,21,0,0,0-7.2,9.83q-2.4,6.33-2.39,19.92V96.67H705.57V2.43h23.65V13.25a40.49,40.49,0,0,1,13.48-10A39.44,39.44,0,0,1,758.86,0a30,30,0,0,1,15.95,4.33Z"/><path class="cls-1" d="M867.36,2.43H890.5l19,53.62L929.85,2.43H944l20,53,19-53h23.3L971.91,96.67h-15L936.83,43l-20.7,53.71H901.31Z"/><path class="cls-1" d="M572.36,0a49.53,49.53,0,1,0,49.35,49.7A49.54,49.54,0,0,0,572.36,0Zm-.09,23.19a26.33,26.33,0,0,1,26.24,26.24H545.85A26.33,26.33,0,0,1,572.27,23.2Z"/><path class="cls-1" d="M821,0a49.53,49.53,0,1,0,49.36,49.7A49.53,49.53,0,0,0,821,0Zm-.08,23.19a26.32,26.32,0,0,1,26.23,26.24H794.5A26.34,26.34,0,0,1,820.93,23.2Z"/><path class="cls-1" d="M49.72,0a49.53,49.53,0,1,0,49.35,49.7A49.53,49.53,0,0,0,49.72,0Zm-.28,75.72A26.2,26.2,0,1,1,75.73,49.62,26.19,26.19,0,0,1,49.44,75.73Z"/></svg>