<svg id="Artwork" xmlns="http://www.w3.org/2000/svg" viewBox="0 0 223.94 192.76"><defs><style>.cls-1{fill:#000031;}</style></defs><title>overmorrow-logo-stacked-rgb</title><path class="cls-1" d="M20.81,171.24h5.36l5.3,12.38,5.28-12.38h5.34l-8.93,21H29.75Z"/><path class="cls-1" d="M63,183.25H46.06a5.62,5.62,0,0,0,2,3.56,6.13,6.13,0,0,0,4,1.32,7,7,0,0,0,5.07-2.06l4.44,2.08a10.48,10.48,0,0,1-4,3.48,12.5,12.5,0,0,1-5.5,1.13,10.85,10.85,0,0,1-8-3.12,10.57,10.57,0,0,1-3.1-7.79,11,11,0,0,1,3.09-8,10.39,10.39,0,0,1,7.76-3.18,10.76,10.76,0,0,1,8.06,3.18,11.43,11.43,0,0,1,3.1,8.37Zm-5.26-4.14a5.28,5.28,0,0,0-2.05-2.85,5.93,5.93,0,0,0-3.57-1.1,6.33,6.33,0,0,0-3.86,1.23,6.87,6.87,0,0,0-1.93,2.72Z"/><path class="cls-1" d="M82.12,171.24h5.27v2.41a9,9,0,0,1,3-2.21A8.74,8.74,0,0,1,94,170.7a6.68,6.68,0,0,1,3.55,1,6.91,6.91,0,0,1,2.55,2.81,8.5,8.5,0,0,1,3.08-2.81,8.4,8.4,0,0,1,4-1,7.37,7.37,0,0,1,3.94,1.05,6.05,6.05,0,0,1,2.44,2.71,14.67,14.67,0,0,1,.74,5.46v12.3H109V181.58c0-2.38-.3-4-.89-4.83a3,3,0,0,0-2.66-1.27,4,4,0,0,0-2.42.78,4.56,4.56,0,0,0-1.59,2.13,13.11,13.11,0,0,0-.52,4.36v9.47h-5.3V182.06a14.15,14.15,0,0,0-.42-4.08,3.67,3.67,0,0,0-1.24-1.88,3.31,3.31,0,0,0-2-.62,3.92,3.92,0,0,0-2.39.79,4.67,4.67,0,0,0-1.6,2.18,13.42,13.42,0,0,0-.53,4.44v9.33H82.12Z"/><path class="cls-1" d="M78.18,177.13a4.09,4.09,0,0,0-3.3-1.65,3.89,3.89,0,0,0-2.38.79,4.69,4.69,0,0,0-1.61,2.18,13.69,13.69,0,0,0-.53,4.44v9.33H65.1v-21h5.26v2.41a8.84,8.84,0,0,1,3-2.21,8.75,8.75,0,0,1,3.6-.74,6.73,6.73,0,0,1,3.55,1Z"/><path class="cls-1" d="M153.49,177.13a4.1,4.1,0,0,0-3.3-1.65,3.92,3.92,0,0,0-2.39.79,4.67,4.67,0,0,0-1.6,2.18,13.69,13.69,0,0,0-.53,4.44v9.33h-5.26v-21h5.26v2.41a8.84,8.84,0,0,1,3-2.21,8.75,8.75,0,0,1,3.6-.74,6.73,6.73,0,0,1,3.55,1Z"/><path class="cls-1" d="M170.1,177.13a4.11,4.11,0,0,0-3.3-1.65,3.92,3.92,0,0,0-2.39.79,4.67,4.67,0,0,0-1.6,2.18,13.42,13.42,0,0,0-.53,4.44v9.33H157v-21h5.27v2.41a8.84,8.84,0,0,1,3-2.21,8.74,8.74,0,0,1,3.59-.74,6.68,6.68,0,0,1,3.55,1Z"/><path class="cls-1" d="M193,171.24h5.15l4.22,11.94,4.53-11.94h3.15l4.46,11.8,4.22-11.8h5.19l-7.66,21H213l-4.47-11.95-4.61,11.95h-3.3Z"/><path class="cls-1" d="M127.37,170.71a11,11,0,1,0,11,11.06A11,11,0,0,0,127.37,170.71Zm0,5.16a5.85,5.85,0,0,1,5.84,5.84H121.47A5.86,5.86,0,0,1,127.35,175.87Z"/><path class="cls-1" d="M182.7,170.71a11,11,0,1,0,11,11.06A11,11,0,0,0,182.7,170.71Zm0,5.16a5.85,5.85,0,0,1,5.83,5.84H176.8A5.87,5.87,0,0,1,182.69,175.87Z"/><path class="cls-1" d="M11.06,170.71a11,11,0,1,0,11,11.06A11,11,0,0,0,11.06,170.71ZM11,187.56a5.83,5.83,0,1,1,5.85-5.81A5.84,5.84,0,0,1,11,187.56Z"/><path class="cls-1" d="M112.26,0a78.37,78.37,0,1,0,78.09,78.64A78.38,78.38,0,0,0,112.26,0Zm-.14,36.69a41.67,41.67,0,0,1,41.51,41.53H70.31A41.68,41.68,0,0,1,112.12,36.69Z"/></svg>