<svg xmlns="http://www.w3.org/2000/svg" width="40" height="40" viewBox="0 0 40 40">
    <g fill="none" fill-rule="evenodd">
        <circle cx="20" cy="20" r="20" fill="#F00075"/>
        <g fill="#FFF">
            <path d="M19.996 8.008c-3.258 0-3.666.013-4.946.072-1.277.058-2.149.26-2.912.557a5.88 5.88 0 0 0-2.125 1.384 5.88 5.88 0 0 0-1.383 2.125c-.297.763-.5 1.635-.558 2.912C8.014 16.338 8 16.746 8 20.004s.014 3.666.072 4.946c.058 1.277.261 2.149.558 2.912a5.88 5.88 0 0 0 1.383 2.125 5.88 5.88 0 0 0 2.125 1.383c.763.297 1.635.5 2.912.558 1.28.058 1.688.072 4.946.072s3.667-.014 4.946-.072c1.277-.058 2.15-.261 2.912-.558a5.88 5.88 0 0 0 2.125-1.383 5.88 5.88 0 0 0 1.384-2.125c.296-.763.499-1.635.557-2.912.059-1.28.072-1.688.072-4.946s-.013-3.667-.072-4.946c-.058-1.277-.26-2.15-.557-2.912a5.88 5.88 0 0 0-1.384-2.125 5.88 5.88 0 0 0-2.125-1.384c-.763-.296-1.635-.499-2.912-.557-1.28-.059-1.688-.072-4.946-.072zm0 2.161c3.203 0 3.583.012 4.848.07 1.17.053 1.805.249 2.227.413.56.218.96.478 1.38.897.42.42.68.82.897 1.38.164.422.36 1.058.413 2.227.058 1.265.07 1.645.07 4.848s-.012 3.582-.07 4.847c-.053 1.17-.249 1.805-.413 2.228-.218.56-.478.96-.897 1.38-.42.419-.82.679-1.38.897-.422.164-1.058.36-2.227.413-1.265.057-1.644.07-4.848.07-3.203 0-3.582-.013-4.847-.07-1.17-.054-1.805-.25-2.228-.413a3.716 3.716 0 0 1-1.38-.898c-.419-.42-.679-.82-.897-1.38-.164-.422-.36-1.057-.413-2.227-.057-1.265-.07-1.644-.07-4.847 0-3.203.013-3.583.07-4.848.054-1.17.25-1.805.413-2.227.218-.56.478-.96.898-1.38.42-.42.82-.68 1.38-.897.422-.164 1.057-.36 2.227-.413 1.265-.058 1.644-.07 4.847-.07z"/>
            <path d="M20 24.013a4.013 4.013 0 1 1 0-8.026 4.013 4.013 0 0 1 0 8.026zm0-10.195a6.182 6.182 0 1 0 0 12.364 6.182 6.182 0 0 0 0-12.364zM27.636 13.818a1.455 1.455 0 1 1-2.909 0 1.455 1.455 0 0 1 2.91 0"/>
        </g>
    </g>
</svg>
