<svg xmlns="http://www.w3.org/2000/svg" xmlns:xlink="http://www.w3.org/1999/xlink" width="540" height="54" viewBox="0 0 540 54">
    <defs>
        <path id="a" d="M.981.823h37.156v51.874H.981z"/>
        <path id="c" d="M.576.823h37.157v51.874H.576z"/>
        <path id="e" d="M.624.823H37.78v51.874H.624z"/>
        <path id="g" d="M.442.125H75v50.573H.442z"/>
        <path id="i" d="M0 .826h53.163v53.156H0z"/>
    </defs>
    <g fill="none" fill-rule="evenodd">
        <path fill="#000031" d="M50.175 1.302h12.929L75.88 31.144 88.629 1.302h12.863L79.971 51.875h-8.228zM139.142 20.267c-.837-2.82-2.49-5.113-4.959-6.88-2.468-1.766-5.33-2.65-8.59-2.65-3.539 0-6.643.993-9.312 2.976-1.676 1.24-3.229 3.425-4.656 6.554h27.517zm12.69 9.994h-40.765c.588 3.595 2.161 6.454 4.718 8.576 2.556 2.123 5.817 3.184 9.785 3.184 4.74 0 8.815-1.657 12.224-4.973l10.691 5.019c-2.665 3.782-5.857 6.578-9.575 8.39-3.719 1.814-8.135 2.72-13.247 2.72-7.934 0-14.395-2.502-19.384-7.507-4.99-5.004-7.484-11.272-7.484-18.802 0-7.716 2.487-14.123 7.46-19.221C111.23 2.55 117.465 0 124.965 0c7.964 0 14.441 2.549 19.43 7.646 4.99 5.098 7.483 11.83 7.483 20.197l-.046 2.417zM198.035 1.302h12.689v5.81c2.17-2.386 4.582-4.168 7.233-5.345C220.609.59 223.5 0 226.633 0c3.163 0 6.016.775 8.559 2.325 2.543 1.55 4.589 3.811 6.14 6.786 2.016-2.975 4.489-5.237 7.419-6.786C251.68.775 254.885 0 258.357 0c3.597 0 6.76.837 9.49 2.511 2.728 1.673 4.689 3.858 5.883 6.554 1.195 2.696 1.79 7.081 1.79 13.154v29.656H262.74V26.217c0-5.733-.713-9.614-2.14-11.644-1.423-2.03-3.562-3.045-6.413-3.045-2.17 0-4.113.62-5.834 1.86-1.72 1.24-2.998 2.951-3.834 5.136-.837 2.184-1.255 5.694-1.255 10.528v22.823H230.48V27.38c0-4.525-.334-7.802-1.002-9.83-.668-2.03-1.67-3.54-3.005-4.534-1.336-.99-2.951-1.487-4.846-1.487-2.112 0-4.03.628-5.755 1.883-1.723 1.255-3.012 3.014-3.866 5.275-.854 2.263-1.282 5.827-1.282 10.692v22.497h-12.69V1.302z"/>
        <g transform="translate(156 -.823)">
            <mask id="b" fill="#fff">
                <use xlink:href="#a"/>
            </mask>
            <path fill="#000031" d="M32.53 16.324c-2.401-3.33-6.062-3.974-7.957-3.974-2.112 0-4.03.628-5.755 1.883-1.724 1.255-3.012 3.014-3.867 5.275-.853 2.263-1.28 5.827-1.28 10.692v22.497H.981V2.124h12.69v5.81c2.17-2.386 4.581-4.167 7.233-5.345C23.555 1.411 26.447.822 29.579.822c3.163 0 6.015.775 8.558 2.325L32.53 16.324z" mask="url(#b)"/>
        </g>
        <g transform="translate(338 -.823)">
            <mask id="d" fill="#fff">
                <use xlink:href="#c"/>
            </mask>
            <path fill="#000031" d="M32.125 16.324c-2.401-3.33-6.062-3.974-7.957-3.974-2.112 0-4.03.628-5.755 1.883-1.724 1.255-3.012 3.014-3.867 5.275-.853 2.263-1.28 5.827-1.28 10.692v22.497H.576V2.124h12.69v5.81c2.17-2.386 4.58-4.167 7.233-5.345 2.65-1.178 5.543-1.767 8.675-1.767 3.163 0 6.015.775 8.559 2.325l-5.608 13.177z" mask="url(#d)"/>
        </g>
        <g transform="translate(378 -.823)">
            <mask id="f" fill="#fff">
                <use xlink:href="#e"/>
            </mask>
            <path fill="#000031" d="M32.173 16.324c-2.401-3.33-6.062-3.974-7.957-3.974-2.112 0-4.031.628-5.755 1.883-1.724 1.255-3.012 3.014-3.867 5.275-.854 2.263-1.281 5.827-1.281 10.692v22.497H.623V2.124h12.69v5.81c2.17-2.386 4.582-4.167 7.233-5.345C23.196 1.411 26.09.822 29.222.822c3.163 0 6.015.775 8.558 2.325l-5.607 13.177z" mask="url(#f)"/>
        </g>
        <g transform="translate(465 1.177)">
            <mask id="h" fill="#fff">
                <use xlink:href="#g"/>
            </mask>
            <path fill="#000031" d="M.442.125h12.42l10.17 28.773L33.974.125h7.598l10.745 28.447L62.499.125H75L56.546 50.698h-8.041L37.72 21.88 26.61 50.7h-7.948z" mask="url(#h)"/>
        </g>
        <path fill="#000031" d="M307.094 12.447c7.774.03 14.054 6.33 14.077 14.085h-28.26c.031-7.807 6.376-14.107 14.183-14.085m.045-12.444c-14.677-.052-26.627 11.8-26.68 26.484-.052 14.677 11.808 26.62 26.485 26.671 14.684.053 26.626-11.8 26.68-26.484.051-14.676-11.809-26.618-26.485-26.67M440.528 12.447c7.774.03 14.055 6.33 14.077 14.085h-28.26c.03-7.807 6.376-14.107 14.183-14.085m.045-12.444c-14.677-.052-26.627 11.8-26.68 26.484-.052 14.677 11.808 26.62 26.485 26.671 14.684.053 26.626-11.8 26.679-26.484.052-14.676-11.807-26.618-26.484-26.67"/>
        <g transform="translate(0 -.823)">
            <mask id="j" fill="#fff">
                <use xlink:href="#i"/>
            </mask>
            <path fill="#000031" d="M26.529 41.462c-7.762-.03-14.032-6.346-14.002-14.107.022-7.762 6.338-14.033 14.107-14.01 7.762.03 14.032 6.345 14.002 14.107-.03 7.762-6.345 14.032-14.107 14.01m.15-40.636C11.995.773.052 12.626-.001 27.31c-.051 14.676 11.808 26.62 26.485 26.672 14.677.051 26.627-11.8 26.68-26.485C53.214 12.82 41.355.878 26.678.827" mask="url(#j)"/>
        </g>
    </g>
</svg>
