<?xml version="1.0" encoding="UTF-8"?>
<svg width="264px" height="36px" viewBox="0 0 264 36" version="1.1" xmlns="http://www.w3.org/2000/svg" xmlns:xlink="http://www.w3.org/1999/xlink">
    <!-- Generator: Sketch 51.3 (57544) - http://www.bohemiancoding.com/sketch -->
    <title>ˈō-vər-mȯr-ō</title>
    <desc>Created with Sketch.</desc>
    <defs></defs>
    <g id="Page-1" stroke="none" stroke-width="1" fill="none" fill-rule="evenodd" fill-opacity="0.746722028">
        <g id="Home" transform="translate(-254.000000, -1037.000000)" fill="#FFFFFF" fill-rule="nonzero">
            <g id="Group-6" transform="translate(216.000000, 983.000000)">
                <g id="Group-4">
                    <path d="M40.2,54.824 L42.552,54.824 L41.016,62.12 L38.664,62.12 L40.2,54.824 Z M43.608,76.616 C43.9920019,74.7919909 44.6159957,73.0880079 45.48,71.504 C46.3440043,69.9199921 47.4079937,68.5440058 48.672,67.376 C49.9360063,66.2079942 51.3839918,65.2880034 53.016,64.616 C54.6480082,63.9439966 56.4559901,63.608 58.44,63.608 C60.3920098,63.608 62.0479932,63.9439966 63.408,64.616 C64.7680068,65.2880034 65.8319962,66.2079942 66.6,67.376 C67.3680038,68.5440058 67.8399991,69.9199921 68.016,71.504 C68.1920009,73.0880079 68.0880019,74.7919909 67.704,76.616 C67.3199981,78.4400091 66.7040042,80.1359922 65.856,81.704 C65.0079958,83.2720078 63.9520063,84.6399942 62.688,85.808 C61.4239937,86.9760058 59.9680082,87.8959966 58.32,88.568 C56.6719918,89.2400034 54.8720098,89.576 52.92,89.576 C50.9359901,89.576 49.2640068,89.2400034 47.904,88.568 C46.5439932,87.8959966 45.4800038,86.9760058 44.712,85.808 C43.9439962,84.6399942 43.4720009,83.2720078 43.296,81.704 C43.1199991,80.1359922 43.2239981,78.4400091 43.608,76.616 Z M47.928,76.616 C47.6079993,78.1200075 47.5279992,79.4559942 47.688,80.624 C47.8480008,81.7920058 48.1919974,82.7679961 48.72,83.552 C49.2480026,84.3360039 49.9439957,84.9359979 50.808,85.352 C51.6720043,85.7680021 52.6319947,85.976 53.688,85.976 C54.7440053,85.976 55.7919948,85.7680021 56.832,85.352 C57.8720052,84.9359979 58.8239957,84.3360039 59.688,83.552 C60.5520043,82.7679961 61.3039968,81.7920058 61.944,80.624 C62.5840032,79.4559942 63.0639984,78.1200075 63.384,76.616 C63.7040007,75.1119925 63.7840008,73.7760058 63.624,72.608 C63.4639992,71.4399942 63.1200026,70.456004 62.592,69.656 C62.0639974,68.855996 61.3760042,68.2480021 60.528,67.832 C59.6799958,67.4159979 58.7280053,67.208 57.672,67.208 C56.6159947,67.208 55.5680052,67.4159979 54.528,67.832 C53.4879948,68.2480021 52.5360043,68.855996 51.672,69.656 C50.8079957,70.456004 50.0480033,71.4399942 49.392,72.608 C48.7359967,73.7760058 48.2480016,75.1119925 47.928,76.616 Z M51.864,56.264 L68.232,56.264 L67.704,58.904 L51.336,58.904 L51.864,56.264 Z M71.736,73.736 L85.656,73.736 L84.888,77.576 L70.968,77.576 L71.736,73.736 Z M98.328,89 L93.96,89 L90.408,64.184 L94.728,64.184 L96.84,84.824 L96.936,84.824 L107.688,64.184 L112.104,64.184 L98.328,89 Z M122.808,89.528 C119.159982,89.528 116.496008,88.5680096 114.816,86.648 C113.135992,84.7279904 112.296,82.0240174 112.296,78.536 C112.296,77.8959968 112.344,77.2880029 112.44,76.712 C112.536,76.1359971 112.616,75.6720018 112.68,75.32 L131.352,75.32 C131.448,74.6159965 131.496,73.8960037 131.496,73.16 C131.496,72.1999952 131.320002,71.3440038 130.968,70.592 C130.615998,69.8399962 130.136003,69.2160025 129.528,68.72 C128.919997,68.2239975 128.232004,67.8400014 127.464,67.568 C126.695996,67.2959986 125.896004,67.16 125.064,67.16 C123.239991,67.16 121.736006,67.5679959 120.552,68.384 C119.367994,69.2000041 118.488003,70.3759923 117.912,71.912 L113.832,71.912 C114.152002,70.5359931 114.663996,69.3280052 115.368,68.288 C116.072004,67.2479948 116.919995,66.3840034 117.912,65.696 C118.904005,65.0079966 120.007994,64.4880018 121.224,64.136 C122.440006,63.7839982 123.719993,63.608 125.064,63.608 C127.11201,63.608 128.815993,63.9199969 130.176,64.544 C131.536007,65.1680031 132.615996,65.9679951 133.416,66.944 C134.216004,67.9200049 134.775998,68.9919942 135.096,70.16 C135.416002,71.3280058 135.576,72.4559946 135.576,73.544 C135.576,75.9120118 135.232003,78.0799902 134.544,80.048 C133.855997,82.0160098 132.928006,83.703993 131.76,85.112 C130.591994,86.520007 129.232008,87.608 127.68,88.376 C126.127992,89.1440038 124.504008,89.528 122.808,89.528 Z M122.184,85.928 C123.368006,85.928 124.431995,85.7440018 125.376,85.376 C126.320005,85.0079982 127.143996,84.5040032 127.848,83.864 C128.552004,83.2239968 129.143998,82.4800042 129.624,81.632 C130.104002,80.7839958 130.487999,79.8800048 130.776,78.92 L116.376,78.92 C116.312,79.7840043 116.367999,80.6399958 116.544,81.488 C116.720001,82.3360042 117.039998,83.0879967 117.504,83.744 C117.968002,84.4000033 118.583996,84.927998 119.352,85.328 C120.120004,85.728002 121.063994,85.928 122.184,85.928 Z M143.064,64.184 L146.904,64.184 L145.704,69.512 L145.8,69.512 C146.760005,67.8159915 147.983993,66.4080056 149.472,65.288 C150.960007,64.1679944 152.74399,63.608 154.824,63.608 C155.080001,63.608 155.319999,63.5920002 155.544,63.56 C155.768001,63.5279998 156.007999,63.5439999 156.264,63.608 L155.304,67.976 C155.175999,67.9439998 154.968001,67.928 154.68,67.928 L154.104,67.928 C153.591997,67.928 153.176002,67.9359999 152.856,67.952 C152.535998,67.9680001 152.136002,68.0399994 151.656,68.168 C150.535994,68.4560014 149.536004,68.9519965 148.656,69.656 C147.775996,70.3600035 147.016003,71.207995 146.376,72.2 C145.831997,73.000004 145.400002,73.9359946 145.08,75.008 C144.759998,76.0800054 144.504001,77.0799954 144.312,78.008 L141.96,89 L137.928,89 L143.064,64.184 Z M156.12,73.736 L170.04,73.736 L169.272,77.576 L155.352,77.576 L156.12,73.736 Z M177.816,64.184 L181.608,64.184 L180.696,67.88 L180.792,67.976 C181.848005,66.6319933 183.119993,65.5680039 184.608,64.784 C186.096007,63.9999961 187.703991,63.608 189.432,63.608 C191.000008,63.608 192.343994,63.9439966 193.464,64.616 C194.584,65.2880034 195.319998,66.4399918 195.672,68.072 C196.632005,66.7279933 197.871992,65.6480041 199.392,64.832 C200.912008,64.0159959 202.503992,63.608 204.168,63.608 C205.032004,63.608 205.879996,63.711999 206.712,63.92 C207.544004,64.128001 208.287997,64.4479978 208.944,64.88 C209.600003,65.3120022 210.119998,65.8799965 210.504,66.584 C210.888002,67.2880035 211.08,68.1519949 211.08,69.176 C211.08,69.9120037 211.000001,70.7439954 210.84,71.672 C210.679999,72.6000046 210.520001,73.4159965 210.36,74.12 L207.24,89 L203.16,89 L206.616,73.256 C206.712,72.8719981 206.8,72.4160026 206.88,71.888 C206.96,71.3599974 207,70.9200018 207,70.568 C207,69.608 206.640004,68.8080032 205.92,68.168 C205.199996,67.5279968 204.296005,67.208 203.208,67.208 C202.631997,67.208 202.048003,67.303999 201.456,67.496 C200.863997,67.688001 200.296003,67.9359985 199.752,68.24 C199.207997,68.5440015 198.696002,68.9039979 198.216,69.32 C197.735998,69.7360021 197.320002,70.1679978 196.968,70.616 C196.295997,71.3520037 195.800002,72.1999952 195.48,73.16 C195.159998,74.1200048 194.888001,75.1279947 194.664,76.184 L191.928,89 L187.848,89 L190.824,74.84 C191.048001,73.8799952 191.231999,72.9840042 191.376,72.152 C191.520001,71.3199958 191.592,70.7600014 191.592,70.472 C191.592,69.4479949 191.296003,68.6480029 190.704,68.072 C190.111997,67.4959971 189.256006,67.208 188.136,67.208 C187.015994,67.208 185.904006,67.5279968 184.8,68.168 C183.695994,68.8080032 182.776004,69.5439958 182.04,70.376 C181.175996,71.2080042 180.584,72.0479958 180.264,72.896 C179.943998,73.7440042 179.656001,74.7759939 179.4,75.992 L176.616,89 L172.584,89 L177.816,64.184 Z M233.88,76.04 C234.360002,73.7039883 234.392002,71.8000074 233.976,70.328 C233.271996,68.0239885 231.464015,66.872 228.552,66.872 C225.959987,66.872 223.872008,67.8559902 222.288,69.824 C220.703992,71.7920098 219.624003,74.1679861 219.048,76.952 C218.471997,79.6080133 218.583996,81.8239911 219.384,83.6 C220.184004,85.3760089 221.863987,86.264 224.424,86.264 C227.208014,86.264 229.343993,85.2080106 230.832,83.096 C232.320007,80.9839894 233.335997,78.632013 233.88,76.04 Z M238.296,75.944 C237.463996,79.9760202 235.776013,83.3119868 233.232,85.952 C230.687987,88.5920132 227.352021,89.912 223.224,89.912 C219.767983,89.912 217.272008,88.7440117 215.736,86.408 C214.199992,84.0719883 213.863996,80.9360197 214.728,77 C215.624004,72.7759789 217.407987,69.4160125 220.08,66.92 C222.752013,64.4239875 225.879982,63.176 229.464,63.176 C232.696016,63.176 235.199991,64.2559892 236.976,66.416 C238.752009,68.5760108 239.192004,71.751979 238.296,75.944 Z M228.936,54.44 L233.304,54.44 L232.248,59.288 L227.88,59.288 L228.936,54.44 Z M245.304,64.184 L249.144,64.184 L247.944,69.512 L248.04,69.512 C249.000005,67.8159915 250.223993,66.4080056 251.712,65.288 C253.200007,64.1679944 254.98399,63.608 257.064,63.608 C257.320001,63.608 257.559999,63.5920002 257.784,63.56 C258.008001,63.5279998 258.247999,63.5439999 258.504,63.608 L257.544,67.976 C257.415999,67.9439998 257.208001,67.928 256.92,67.928 L256.344,67.928 C255.831997,67.928 255.416002,67.9359999 255.096,67.952 C254.775998,67.9680001 254.376002,68.0399994 253.896,68.168 C252.775994,68.4560014 251.776004,68.9519965 250.896,69.656 C250.015996,70.3600035 249.256003,71.207995 248.616,72.2 C248.071997,73.000004 247.640002,73.9359946 247.32,75.008 C246.999998,76.0800054 246.744001,77.0799954 246.552,78.008 L244.2,89 L240.168,89 L245.304,64.184 Z M258.36,73.736 L272.28,73.736 L271.512,77.576 L257.592,77.576 L258.36,73.736 Z M276.456,76.616 C276.840002,74.7919909 277.463996,73.0880079 278.328,71.504 C279.192004,69.9199921 280.255994,68.5440058 281.52,67.376 C282.784006,66.2079942 284.231992,65.2880034 285.864,64.616 C287.496008,63.9439966 289.30399,63.608 291.288,63.608 C293.24001,63.608 294.895993,63.9439966 296.256,64.616 C297.616007,65.2880034 298.679996,66.2079942 299.448,67.376 C300.216004,68.5440058 300.687999,69.9199921 300.864,71.504 C301.040001,73.0880079 300.936002,74.7919909 300.552,76.616 C300.167998,78.4400091 299.552004,80.1359922 298.704,81.704 C297.855996,83.2720078 296.800006,84.6399942 295.536,85.808 C294.271994,86.9760058 292.816008,87.8959966 291.168,88.568 C289.519992,89.2400034 287.72001,89.576 285.768,89.576 C283.78399,89.576 282.112007,89.2400034 280.752,88.568 C279.391993,87.8959966 278.328004,86.9760058 277.56,85.808 C276.791996,84.6399942 276.320001,83.2720078 276.144,81.704 C275.967999,80.1359922 276.071998,78.4400091 276.456,76.616 Z M280.776,76.616 C280.455999,78.1200075 280.375999,79.4559942 280.536,80.624 C280.696001,81.7920058 281.039997,82.7679961 281.568,83.552 C282.096003,84.3360039 282.791996,84.9359979 283.656,85.352 C284.520004,85.7680021 285.479995,85.976 286.536,85.976 C287.592005,85.976 288.639995,85.7680021 289.68,85.352 C290.720005,84.9359979 291.671996,84.3360039 292.536,83.552 C293.400004,82.7679961 294.151997,81.7920058 294.792,80.624 C295.432003,79.4559942 295.911998,78.1200075 296.232,76.616 C296.552001,75.1119925 296.632001,73.7760058 296.472,72.608 C296.311999,71.4399942 295.968003,70.456004 295.44,69.656 C294.911997,68.855996 294.224004,68.2480021 293.376,67.832 C292.527996,67.4159979 291.576005,67.208 290.52,67.208 C289.463995,67.208 288.416005,67.4159979 287.376,67.832 C286.335995,68.2480021 285.384004,68.855996 284.52,69.656 C283.655996,70.456004 282.896003,71.4399942 282.24,72.608 C281.583997,73.7760058 281.096002,75.1119925 280.776,76.616 Z M284.712,56.264 L301.08,56.264 L300.552,58.904 L284.184,58.904 L284.712,56.264 Z" id="ˈō-vər-mȯr-ō"></path>
                </g>
            </g>
        </g>
    </g>
</svg>